<mxfile host="app.diagrams.net" agent="Mozilla/5.0 (Macintosh; Intel Mac OS X 10_15_7) AppleWebKit/537.36 (KHTML, like Gecko) Chrome/134.0.0.0 Safari/537.36" version="26.0.16">
  <diagram name="페이지-1" id="lM9V0UMH9LHzPnVkpcF5">
    <mxGraphModel dx="1121" dy="1506" grid="1" gridSize="10" guides="1" tooltips="1" connect="1" arrows="1" fold="1" page="1" pageScale="1" pageWidth="1600" pageHeight="900" math="0" shadow="0">
      <root>
        <mxCell id="0" />
        <mxCell id="1" parent="0" />
        <mxCell id="3JYMZ-o1eWGwcYVXsBVz-36" style="edgeStyle=orthogonalEdgeStyle;rounded=0;orthogonalLoop=1;jettySize=auto;html=1;startArrow=classic;startFill=1;" parent="1" source="3JYMZ-o1eWGwcYVXsBVz-7" target="3JYMZ-o1eWGwcYVXsBVz-29" edge="1">
          <mxGeometry relative="1" as="geometry" />
        </mxCell>
        <mxCell id="3JYMZ-o1eWGwcYVXsBVz-7" value="&lt;&lt;component&gt;&gt;&#xa;AppleGame" style="html=1;dropTarget=0;rounded=1;" parent="1" vertex="1">
          <mxGeometry x="806.37" y="197.5" width="160" height="80" as="geometry" />
        </mxCell>
        <mxCell id="3JYMZ-o1eWGwcYVXsBVz-26" style="edgeStyle=orthogonalEdgeStyle;rounded=0;orthogonalLoop=1;jettySize=auto;html=1;" parent="1" source="3JYMZ-o1eWGwcYVXsBVz-20" target="3JYMZ-o1eWGwcYVXsBVz-21" edge="1">
          <mxGeometry relative="1" as="geometry" />
        </mxCell>
        <mxCell id="3JYMZ-o1eWGwcYVXsBVz-32" value="User Input" style="edgeLabel;html=1;align=center;verticalAlign=middle;resizable=0;points=[];" parent="3JYMZ-o1eWGwcYVXsBVz-26" vertex="1" connectable="0">
          <mxGeometry x="0.3123" y="3" relative="1" as="geometry">
            <mxPoint x="-34" y="3" as="offset" />
          </mxGeometry>
        </mxCell>
        <mxCell id="3JYMZ-o1eWGwcYVXsBVz-20" value="Human&lt;br&gt;Player" style="shape=umlActor;verticalLabelPosition=bottom;verticalAlign=top;html=1;outlineConnect=0;" parent="1" vertex="1">
          <mxGeometry x="509.7" y="30" width="70" height="135" as="geometry" />
        </mxCell>
        <mxCell id="3JYMZ-o1eWGwcYVXsBVz-25" value="" style="group;fontSize=15;" parent="1" vertex="1" connectable="0">
          <mxGeometry x="779.7" y="67.5" width="213.33000000000004" height="90" as="geometry" />
        </mxCell>
        <mxCell id="3JYMZ-o1eWGwcYVXsBVz-21" value="" style="shape=image;verticalLabelPosition=bottom;labelBackgroundColor=default;verticalAlign=top;aspect=fixed;imageAspect=0;image=https://upload.wikimedia.org/wikipedia/commons/thumb/b/be/Pygame_logo.svg/512px-Pygame_logo.svg.png;" parent="3JYMZ-o1eWGwcYVXsBVz-25" vertex="1">
          <mxGeometry width="213.33" height="60" as="geometry" />
        </mxCell>
        <mxCell id="3JYMZ-o1eWGwcYVXsBVz-24" value="UI" style="text;html=1;align=center;verticalAlign=middle;whiteSpace=wrap;rounded=0;fontSize=15;" parent="3JYMZ-o1eWGwcYVXsBVz-25" vertex="1">
          <mxGeometry x="76.66999999999996" y="60" width="60" height="30" as="geometry" />
        </mxCell>
        <mxCell id="3JYMZ-o1eWGwcYVXsBVz-27" style="edgeStyle=orthogonalEdgeStyle;rounded=0;orthogonalLoop=1;jettySize=auto;html=1;startArrow=classic;startFill=1;" parent="1" source="3JYMZ-o1eWGwcYVXsBVz-24" target="3JYMZ-o1eWGwcYVXsBVz-7" edge="1">
          <mxGeometry relative="1" as="geometry" />
        </mxCell>
        <mxCell id="3JYMZ-o1eWGwcYVXsBVz-30" style="edgeStyle=orthogonalEdgeStyle;rounded=0;orthogonalLoop=1;jettySize=auto;html=1;" parent="1" source="3JYMZ-o1eWGwcYVXsBVz-21" target="3JYMZ-o1eWGwcYVXsBVz-20" edge="1">
          <mxGeometry relative="1" as="geometry">
            <Array as="points">
              <mxPoint x="709.7" y="117.5" />
              <mxPoint x="709.7" y="117.5" />
            </Array>
          </mxGeometry>
        </mxCell>
        <mxCell id="3JYMZ-o1eWGwcYVXsBVz-31" value="Display" style="edgeLabel;html=1;align=center;verticalAlign=middle;resizable=0;points=[];" parent="3JYMZ-o1eWGwcYVXsBVz-30" vertex="1" connectable="0">
          <mxGeometry x="-0.3578" y="-3" relative="1" as="geometry">
            <mxPoint x="-39" y="3" as="offset" />
          </mxGeometry>
        </mxCell>
        <mxCell id="3JYMZ-o1eWGwcYVXsBVz-39" value="" style="group" parent="1" vertex="1" connectable="0">
          <mxGeometry x="796.37" y="317.5" width="180" height="120" as="geometry" />
        </mxCell>
        <mxCell id="3JYMZ-o1eWGwcYVXsBVz-29" value="" style="shape=image;verticalLabelPosition=bottom;labelBackgroundColor=default;verticalAlign=top;aspect=fixed;imageAspect=0;image=data:image/png,iVBORw0KGgoAAAANSUhEUgAAAT4AAACfCAMAAABX0UX9AAAAflBMVEX///8AAAB0dHQ6OjqJiYmAgICoqKiQkJDT09PBwcF9fX3ExMR3d3d6enptbW319fXt7e3m5uYpKSkLCwv4+PixsbHKysrf39+bm5tERES7u7tbW1vq6uqjo6OGhoY0NDRNTU0VFRUlJSUcHBxoaGg+Pj6Xl5dSUlJgYGAYGBjpHaZbAAAHFklEQVR4nO2aiXaiShCGKSUsGkWRfRF3nfd/wcvSS6Ekc8drRnPzf+cktgh081PVVdVgGAAAAAAAAAAAAAAAAAAAAAAAAAAAAAAAAAAAAAAAAAAAAAAAAAAAAAAAAAAAAAD8BQIvkE3Pe+ZAviGF6VfjyjcLw3Bzfzz2N+Gzh/SNmFRuY3qBm76nb3GzpbBX0ZMH9W3wS9lK0t1CNL1x+cHuoEc1lS1zbhRUyG+b7Dnj+V4ktmxl5/rfcqV+oc9CyMJxXSf4ZIcvJF78fp+/BclG0LXCmdyQrT86JjitiLb13zn+0rEN4xA96b7d4pqy9SactVLuu7rdvSUkP2wNIJ6Q+cE+X0hG9DLmZ6uZbys+3Te5JR323hnpWXG5Sr9oYJ9Qvs6sPJHul6k5cC8bh+XQEWviHhtYXzOub8JoZFtO03h35Ka8US1wE9t3Bg6IaGjrz+S0GuWONV/VOd5ReeopM5b5znan+8PuNjTQhwHlx1GdRORNyBmrrVliVo2FWYmx2F1Xb9nrRL1nkzZTcHZoml76S22eUltweK2w1VXxlr4PnCg4FfzrMmlP09yCsCKSVU3TrthUmTT2ntQbad2LUdml3rQ78S2beouuw0MxfXgndisjGU+iZsThmPU77vf7IESGd2gvVgcMw+2CyKpzXOod49FgLVy98W+zvPn/ZhvL7ThbxhZt6q/Fr9Rt2jpS1wVORBc3jqcbFo3K+lKdZZztV0qbI1nxMg73JASUuix4AmMeRGO9Nop9lcWir8Xu2ParvetBSGHy9trT6Tqt7/H+EJ6a+1hIncpe7RsNlyJuT2Rqk6G17YgMJyC7znVd0VaZIi0SGYZmKsWknYxMx41oHOSdtSbd51iY0oIPxp6LhmnGQuemLz2G3h3+7ziyP+O0j70JzaJ2MLHl11VwSTJpCXb8oKRvjAqWCtYStx9mqs4xpUi1tdJ09pWBCXHrg9VpFsIkl3Qdv34jX6oOiFi/0YMn7URfcUG/Ip2LjpfvNNP79eRbH4dPZrLsedRNjybptJH0SoSh3J82+pg561By7GaV8OaOfS6f3euXtV3jkehEz9vVDhrn4ltRK7Hc64h74Td/fhk+WcGmIeGRa+YtG5btpHI24FZVDkxNZtfXn8pnTvTGnN2VczI89DuZy9Evuuv1xVjsVrmN6uzA5TscjGFSVbRMxeWu2dBHTMqDnPx4/u3qyKWwOkuPb/L038jHcoPZiI2ByfoAVLUrrCAUlyWuXuUJvcp3nqvmiDo6p58qGzkIS+PyzZh86jK4LNOB5YnEFye81u/fy/fG5Juw9gOQay0bKeO29T9TZkgrMW30fMfUTuYVixpPTil6ShPW+h/kW2RvTRYg+5rQpSfgS8gndHGVOzpV88+XX+Oq/eiv+pU3E5GUzxZ2mck97pUvKPd0TqLCyPRQDrRiee9ryGe3c/hWD6E81CFAfz209tRP9G7zPimfvJZclgt3ypfQWdhx6OvfvXJLMxmdXkM+o4nqDo8F9sFn1Vcbi0f9J0a3VYfKB7pgE6hU4T75Ljoec/lqIl929SLyNYmpOWUbMurFidoNJ/OrY47XNa+Srwse2uPuks9iilzJ16zTdke8iHyGt7U2OhePz3PD2bLsaOQeb9biw+vkXWej7cWdlbXeJR8xY7+Rzzh2rqLlY77yBPnqeo2SztkWYXpuhmtdtjPhn1E6tF56/XRDy3eaN76rDOIe+TyeSt/KV3bZoZQv4HufniGfsXVzGqfH1SYpjGa4YWhEk90uTXe+ORsqc7KrElTL16xwhbp4u0e+xefyWX35eB0WrKQ6f1W+doji9aCmXXbZcvuakD24ODWi3uIeu4TcMtjLMfc5rz6bI/I+Nr9dOgtT8l20IvvqKfLl7HFQk+jxUJIPPioycmL7vLGiPCKDzYx3yTdX1mvTpE08HVJ3JBK2qeSLZKW9IKt8ivNabK5u5NqwFcgPFqfqK9u07xQZ8Yl4pmNQzlYUuHzvrN4clk/05dG5fVAVUm5E3VpPSOPOCywZV5R89Z1szhFYtcSlzMD+qnzeVrcbKdnyVPbhI/DlrFlYrf/S/hPXki8K2axcWbNTTeR2Ll8k5znvXBdre9rUv8nHL4FNtBv7tJNzCZ8h6r19SmvJQ6mOzSydr76sH7tkIM+qzc/bGyXLWz5dX1xG7jS+3iH+yF7/BC/KouvSpojcqBjcO3Cy6KnvHOy0EdgmC3bpny8vnq6T7B9AsFdTyYLU8y1vfMezqeHnSP933qusccPFaRsf8ja4Lc3tHe8SOI/w3W9IYVc1aTMjO5fm3ebzXS/hpD/4hVQdBu59sz77ocb3GBy8O3QvlpXN6XXeuvtu2Dt/NFzhAQAAAAAAAAAAAAAAAAAAAAAAAAAAAAAAAAAAAAAAAAAAAAAAAAAAAAAAAADgD/gHsQ1aksabXB0AAAAASUVORK5CYII=;" parent="3JYMZ-o1eWGwcYVXsBVz-39" vertex="1">
          <mxGeometry width="180" height="90" as="geometry" />
        </mxCell>
        <mxCell id="3JYMZ-o1eWGwcYVXsBVz-38" value="AppleGameEnv" style="text;html=1;align=center;verticalAlign=middle;whiteSpace=wrap;rounded=0;fontSize=15;" parent="3JYMZ-o1eWGwcYVXsBVz-39" vertex="1">
          <mxGeometry x="60" y="90" width="60" height="30" as="geometry" />
        </mxCell>
        <mxCell id="3JYMZ-o1eWGwcYVXsBVz-40" value="" style="group" parent="1" vertex="1" connectable="0">
          <mxGeometry x="1199.7" y="277.5" width="160.58999999999992" height="170" as="geometry" />
        </mxCell>
        <mxCell id="3JYMZ-o1eWGwcYVXsBVz-23" value="" style="shape=image;verticalLabelPosition=bottom;labelBackgroundColor=default;verticalAlign=top;aspect=fixed;imageAspect=0;image=https://stable-baselines3.readthedocs.io/en/master/_static/logo.png;" parent="3JYMZ-o1eWGwcYVXsBVz-40" vertex="1">
          <mxGeometry width="160.59" height="140" as="geometry" />
        </mxCell>
        <mxCell id="3JYMZ-o1eWGwcYVXsBVz-37" value="Stable-Baselines3&lt;div style=&quot;font-size: 15px;&quot;&gt;Agent&lt;/div&gt;" style="text;html=1;align=center;verticalAlign=middle;whiteSpace=wrap;rounded=0;fontSize=15;" parent="3JYMZ-o1eWGwcYVXsBVz-40" vertex="1">
          <mxGeometry x="5.510000000000105" y="140" width="149.56" height="30" as="geometry" />
        </mxCell>
        <mxCell id="3JYMZ-o1eWGwcYVXsBVz-41" style="edgeStyle=orthogonalEdgeStyle;rounded=0;orthogonalLoop=1;jettySize=auto;html=1;startArrow=none;startFill=0;" parent="1" edge="1">
          <mxGeometry relative="1" as="geometry">
            <mxPoint x="976.3700000000001" y="347.5700000000002" as="sourcePoint" />
            <mxPoint x="1199.7" y="347.5700000000002" as="targetPoint" />
            <Array as="points">
              <mxPoint x="1089.7" y="347.57" />
              <mxPoint x="1089.7" y="347.57" />
            </Array>
          </mxGeometry>
        </mxCell>
        <mxCell id="3JYMZ-o1eWGwcYVXsBVz-43" value="Observation" style="edgeLabel;html=1;align=center;verticalAlign=middle;resizable=0;points=[];" parent="3JYMZ-o1eWGwcYVXsBVz-41" vertex="1" connectable="0">
          <mxGeometry x="0.1499" relative="1" as="geometry">
            <mxPoint x="-15" as="offset" />
          </mxGeometry>
        </mxCell>
        <mxCell id="3JYMZ-o1eWGwcYVXsBVz-54" style="edgeStyle=orthogonalEdgeStyle;rounded=0;orthogonalLoop=1;jettySize=auto;html=1;" parent="1" edge="1">
          <mxGeometry relative="1" as="geometry">
            <mxPoint x="1199.69" y="387.5000000000002" as="sourcePoint" />
            <mxPoint x="976.3600000000001" y="387.5000000000002" as="targetPoint" />
            <Array as="points">
              <mxPoint x="1029.69" y="387.5" />
              <mxPoint x="1029.69" y="387.5" />
            </Array>
          </mxGeometry>
        </mxCell>
        <mxCell id="3JYMZ-o1eWGwcYVXsBVz-56" value="Action" style="edgeLabel;html=1;align=center;verticalAlign=middle;resizable=0;points=[];" parent="3JYMZ-o1eWGwcYVXsBVz-54" vertex="1" connectable="0">
          <mxGeometry x="0.0079" y="-3" relative="1" as="geometry">
            <mxPoint x="3" as="offset" />
          </mxGeometry>
        </mxCell>
        <mxCell id="3JYMZ-o1eWGwcYVXsBVz-57" style="edgeStyle=orthogonalEdgeStyle;rounded=0;orthogonalLoop=1;jettySize=auto;html=1;startArrow=classic;startFill=1;" parent="1" source="3JYMZ-o1eWGwcYVXsBVz-58" target="3JYMZ-o1eWGwcYVXsBVz-60" edge="1">
          <mxGeometry relative="1" as="geometry" />
        </mxCell>
        <mxCell id="3JYMZ-o1eWGwcYVXsBVz-58" value="&lt;&lt;component&gt;&gt;&#xa;AppleGame" style="html=1;dropTarget=0;rounded=1;" parent="1" vertex="1">
          <mxGeometry x="650" y="550" width="160" height="80" as="geometry" />
        </mxCell>
        <mxCell id="3JYMZ-o1eWGwcYVXsBVz-59" value="" style="group" parent="1" vertex="1" connectable="0">
          <mxGeometry x="640" y="670" width="180" height="120" as="geometry" />
        </mxCell>
        <mxCell id="3JYMZ-o1eWGwcYVXsBVz-60" value="" style="shape=image;verticalLabelPosition=bottom;labelBackgroundColor=default;verticalAlign=top;aspect=fixed;imageAspect=0;image=data:image/png,iVBORw0KGgoAAAANSUhEUgAAAT4AAACfCAMAAABX0UX9AAAAflBMVEX///8AAAB0dHQ6OjqJiYmAgICoqKiQkJDT09PBwcF9fX3ExMR3d3d6enptbW319fXt7e3m5uYpKSkLCwv4+PixsbHKysrf39+bm5tERES7u7tbW1vq6uqjo6OGhoY0NDRNTU0VFRUlJSUcHBxoaGg+Pj6Xl5dSUlJgYGAYGBjpHaZbAAAHFklEQVR4nO2aiXaiShCGKSUsGkWRfRF3nfd/wcvSS6Ekc8drRnPzf+cktgh081PVVdVgGAAAAAAAAAAAAAAAAAAAAAAAAAAAAAAAAAAAAAAAAAAAAAAAAAAAAAAAAAAAAAD8BQIvkE3Pe+ZAviGF6VfjyjcLw3Bzfzz2N+Gzh/SNmFRuY3qBm76nb3GzpbBX0ZMH9W3wS9lK0t1CNL1x+cHuoEc1lS1zbhRUyG+b7Dnj+V4ktmxl5/rfcqV+oc9CyMJxXSf4ZIcvJF78fp+/BclG0LXCmdyQrT86JjitiLb13zn+0rEN4xA96b7d4pqy9SactVLuu7rdvSUkP2wNIJ6Q+cE+X0hG9DLmZ6uZbys+3Te5JR323hnpWXG5Sr9oYJ9Qvs6sPJHul6k5cC8bh+XQEWviHhtYXzOub8JoZFtO03h35Ka8US1wE9t3Bg6IaGjrz+S0GuWONV/VOd5ReeopM5b5znan+8PuNjTQhwHlx1GdRORNyBmrrVliVo2FWYmx2F1Xb9nrRL1nkzZTcHZoml76S22eUltweK2w1VXxlr4PnCg4FfzrMmlP09yCsCKSVU3TrthUmTT2ntQbad2LUdml3rQ78S2beouuw0MxfXgndisjGU+iZsThmPU77vf7IESGd2gvVgcMw+2CyKpzXOod49FgLVy98W+zvPn/ZhvL7ThbxhZt6q/Fr9Rt2jpS1wVORBc3jqcbFo3K+lKdZZztV0qbI1nxMg73JASUuix4AmMeRGO9Nop9lcWir8Xu2ParvetBSGHy9trT6Tqt7/H+EJ6a+1hIncpe7RsNlyJuT2Rqk6G17YgMJyC7znVd0VaZIi0SGYZmKsWknYxMx41oHOSdtSbd51iY0oIPxp6LhmnGQuemLz2G3h3+7ziyP+O0j70JzaJ2MLHl11VwSTJpCXb8oKRvjAqWCtYStx9mqs4xpUi1tdJ09pWBCXHrg9VpFsIkl3Qdv34jX6oOiFi/0YMn7URfcUG/Ip2LjpfvNNP79eRbH4dPZrLsedRNjybptJH0SoSh3J82+pg561By7GaV8OaOfS6f3euXtV3jkehEz9vVDhrn4ltRK7Hc64h74Td/fhk+WcGmIeGRa+YtG5btpHI24FZVDkxNZtfXn8pnTvTGnN2VczI89DuZy9Evuuv1xVjsVrmN6uzA5TscjGFSVbRMxeWu2dBHTMqDnPx4/u3qyKWwOkuPb/L038jHcoPZiI2ByfoAVLUrrCAUlyWuXuUJvcp3nqvmiDo6p58qGzkIS+PyzZh86jK4LNOB5YnEFye81u/fy/fG5Juw9gOQay0bKeO29T9TZkgrMW30fMfUTuYVixpPTil6ShPW+h/kW2RvTRYg+5rQpSfgS8gndHGVOzpV88+XX+Oq/eiv+pU3E5GUzxZ2mck97pUvKPd0TqLCyPRQDrRiee9ryGe3c/hWD6E81CFAfz209tRP9G7zPimfvJZclgt3ypfQWdhx6OvfvXJLMxmdXkM+o4nqDo8F9sFn1Vcbi0f9J0a3VYfKB7pgE6hU4T75Ljoec/lqIl929SLyNYmpOWUbMurFidoNJ/OrY47XNa+Srwse2uPuks9iilzJ16zTdke8iHyGt7U2OhePz3PD2bLsaOQeb9biw+vkXWej7cWdlbXeJR8xY7+Rzzh2rqLlY77yBPnqeo2SztkWYXpuhmtdtjPhn1E6tF56/XRDy3eaN76rDOIe+TyeSt/KV3bZoZQv4HufniGfsXVzGqfH1SYpjGa4YWhEk90uTXe+ORsqc7KrElTL16xwhbp4u0e+xefyWX35eB0WrKQ6f1W+doji9aCmXXbZcvuakD24ODWi3uIeu4TcMtjLMfc5rz6bI/I+Nr9dOgtT8l20IvvqKfLl7HFQk+jxUJIPPioycmL7vLGiPCKDzYx3yTdX1mvTpE08HVJ3JBK2qeSLZKW9IKt8ivNabK5u5NqwFcgPFqfqK9u07xQZ8Yl4pmNQzlYUuHzvrN4clk/05dG5fVAVUm5E3VpPSOPOCywZV5R89Z1szhFYtcSlzMD+qnzeVrcbKdnyVPbhI/DlrFlYrf/S/hPXki8K2axcWbNTTeR2Ll8k5znvXBdre9rUv8nHL4FNtBv7tJNzCZ8h6r19SmvJQ6mOzSydr76sH7tkIM+qzc/bGyXLWz5dX1xG7jS+3iH+yF7/BC/KouvSpojcqBjcO3Cy6KnvHOy0EdgmC3bpny8vnq6T7B9AsFdTyYLU8y1vfMezqeHnSP933qusccPFaRsf8ja4Lc3tHe8SOI/w3W9IYVc1aTMjO5fm3ebzXS/hpD/4hVQdBu59sz77ocb3GBy8O3QvlpXN6XXeuvtu2Dt/NFzhAQAAAAAAAAAAAAAAAAAAAAAAAAAAAAAAAAAAAAAAAAAAAAAAAAAAAAAAAADgD/gHsQ1aksabXB0AAAAASUVORK5CYII=;" parent="3JYMZ-o1eWGwcYVXsBVz-59" vertex="1">
          <mxGeometry width="180" height="90" as="geometry" />
        </mxCell>
        <mxCell id="3JYMZ-o1eWGwcYVXsBVz-61" value="AppleGameEnv" style="text;html=1;align=center;verticalAlign=middle;whiteSpace=wrap;rounded=0;fontSize=15;" parent="3JYMZ-o1eWGwcYVXsBVz-59" vertex="1">
          <mxGeometry x="60" y="90" width="60" height="30" as="geometry" />
        </mxCell>
        <mxCell id="3JYMZ-o1eWGwcYVXsBVz-62" value="" style="group" parent="1" vertex="1" connectable="0">
          <mxGeometry x="1043.33" y="630" width="160.58999999999992" height="170" as="geometry" />
        </mxCell>
        <mxCell id="3JYMZ-o1eWGwcYVXsBVz-63" value="" style="shape=image;verticalLabelPosition=bottom;labelBackgroundColor=default;verticalAlign=top;aspect=fixed;imageAspect=0;image=https://stable-baselines3.readthedocs.io/en/master/_static/logo.png;" parent="3JYMZ-o1eWGwcYVXsBVz-62" vertex="1">
          <mxGeometry width="160.59" height="140" as="geometry" />
        </mxCell>
        <mxCell id="3JYMZ-o1eWGwcYVXsBVz-64" value="Stable-Baselines3&lt;div style=&quot;font-size: 15px;&quot;&gt;Agent&lt;/div&gt;" style="text;html=1;align=center;verticalAlign=middle;whiteSpace=wrap;rounded=0;fontSize=15;" parent="3JYMZ-o1eWGwcYVXsBVz-62" vertex="1">
          <mxGeometry x="5.510000000000105" y="140" width="149.56" height="30" as="geometry" />
        </mxCell>
        <mxCell id="3JYMZ-o1eWGwcYVXsBVz-65" style="edgeStyle=orthogonalEdgeStyle;rounded=0;orthogonalLoop=1;jettySize=auto;html=1;startArrow=none;startFill=0;" parent="1" edge="1">
          <mxGeometry relative="1" as="geometry">
            <mxPoint x="820.0000000000001" y="700.0700000000002" as="sourcePoint" />
            <mxPoint x="1043.33" y="700.0700000000002" as="targetPoint" />
            <Array as="points">
              <mxPoint x="933.33" y="700.0699999999999" />
              <mxPoint x="933.33" y="700.0699999999999" />
            </Array>
          </mxGeometry>
        </mxCell>
        <mxCell id="3JYMZ-o1eWGwcYVXsBVz-66" value="Observation" style="edgeLabel;html=1;align=center;verticalAlign=middle;resizable=0;points=[];" parent="3JYMZ-o1eWGwcYVXsBVz-65" vertex="1" connectable="0">
          <mxGeometry x="0.1499" relative="1" as="geometry">
            <mxPoint x="-15" as="offset" />
          </mxGeometry>
        </mxCell>
        <mxCell id="3JYMZ-o1eWGwcYVXsBVz-67" style="edgeStyle=orthogonalEdgeStyle;rounded=0;orthogonalLoop=1;jettySize=auto;html=1;" parent="1" edge="1">
          <mxGeometry relative="1" as="geometry">
            <mxPoint x="1043.32" y="740.0000000000002" as="sourcePoint" />
            <mxPoint x="819.9900000000001" y="740.0000000000002" as="targetPoint" />
            <Array as="points">
              <mxPoint x="873.32" y="740" />
              <mxPoint x="873.32" y="740" />
            </Array>
          </mxGeometry>
        </mxCell>
        <mxCell id="3JYMZ-o1eWGwcYVXsBVz-68" value="Action" style="edgeLabel;html=1;align=center;verticalAlign=middle;resizable=0;points=[];" parent="3JYMZ-o1eWGwcYVXsBVz-67" vertex="1" connectable="0">
          <mxGeometry x="0.0079" y="-3" relative="1" as="geometry">
            <mxPoint x="3" as="offset" />
          </mxGeometry>
        </mxCell>
        <mxCell id="3JYMZ-o1eWGwcYVXsBVz-70" value="main.py" style="swimlane;whiteSpace=wrap;html=1;" parent="1" vertex="1">
          <mxGeometry x="469.7" y="-10" width="890" height="470" as="geometry" />
        </mxCell>
        <mxCell id="3JYMZ-o1eWGwcYVXsBVz-71" value="train.py" style="swimlane;whiteSpace=wrap;html=1;" parent="1" vertex="1">
          <mxGeometry x="620" y="510" width="590" height="330" as="geometry" />
        </mxCell>
        <mxCell id="rDEOcfvnW5xx5Qf8U-n6-1" value="" style="sketch=0;pointerEvents=1;shadow=0;dashed=0;html=1;strokeColor=none;fillColor=#434445;aspect=fixed;labelPosition=center;verticalLabelPosition=bottom;verticalAlign=top;align=center;outlineConnect=0;shape=mxgraph.vvd.mouse;" vertex="1" parent="1">
          <mxGeometry x="790" y="-350" width="24.5" height="50" as="geometry" />
        </mxCell>
        <mxCell id="rDEOcfvnW5xx5Qf8U-n6-2" value="" style="shape=image;verticalLabelPosition=bottom;labelBackgroundColor=default;verticalAlign=top;aspect=fixed;imageAspect=0;image=data:image/png,iVBORw0KGgoAAAANSUhEUgAAAKYAAAC0CAYAAAAellfnAAAAAXNSR0IArs4c6QAAAIRlWElmTU0AKgAAAAgABQESAAMAAAABAAEAAAEaAAUAAAABAAAASgEbAAUAAAABAAAAUgEoAAMAAAABAAIAAIdpAAQAAAABAAAAWgAAAAAAAACQAAAAAQAAAJAAAAABAAOgAQADAAAAAQABAACgAgAEAAAAAQAAAKagAwAEAAAAAQAAALQAAAAAh4B+VgAAAAlwSFlzAAAWJQAAFiUBSVIk8AAAQABJREFUeAHtfQd4HNW59rervuq992Jb7r1hY2M6hBYCpJHQbkIK94YESPLfEAIJgfRQkptCgAQChN6CTTN2bHDDXXJX77137f7ve2ZnNSutLFmWbJX9nkfa3Slnzsx55ztfPyJucj+BcfgETDbQOOyXu0tT/AmYp/j9u29/nD4BNzDH6cBM9W65gTnVETBO798NzHE6MFO9W25gTnUEjNP7dwNznA7MVO+WG5hTHQHj9P7dwBynAzPVu+UG5lRHwDi9fzcwx+nATPVuuYE51REwTu/fDcxxOjBTvVtuYE51BIzT+3cDc5wOzFTvlhuYUx0B4/T+3cAcpwMz1bvlBuYoIMAdaz0KD7FfE579frt/DvIECD6r1So9PT3S3d2t/hobG6WiokIaGhrE399fYmJiJCQkRHx8fMTT09PxZza73/9BHuugm93AHPTRaDsIRv4VFRXJSy+9JG+++aYcPnxYamtrZTBOabFYJD4+XpYsWSLf/OY3ZdasWeLr66uAajKZhriiezefgDvnZxActLS0SElJiWzatEl+//vfy6FDhwY5cujNgYGBctFFF8nNN98sCxculPDwcPHw8Bj6xCl8hBuY/Qa/tbVVPv30U3n55Zfl+eefl6qqqn5H9P309TGLl6eHmDBT28BVe3ut0tllE3y4JIJxxYoVcsstt8i6deskISHB5XHujW6O6YSBvLw8efbZZ9XfsWPH1BRuPCA0xEciw/wkLMRbIsJ8JCrcV4ICOEUDjJA72zvapba+VSqrO6W+sUvqGm1SWdcDudQ5ETUoKEjOP/98ue222+Tiiy82XsL93f4EJiXHpIJCxaS9vV3a2tqkq6tLTZ1USqichIWFDQDAJ598Io888oi888476lz9AIqEyfEBkp4cJAtmRcmiueGSmRYMgPqKl5dZPMAtTWCZNhsVo06xdtRLU2OdFJc2yf6jrbJ9X7scyuuQ4opuaWzp1ZsVKkRpaWny3e9+V66//noJDQ117HN/mSQck0A8fvy4FBQUSGlpqRw9elTKysqkqalJ/RGYBAI156ioKElNTZXk5GQ1lWZmZsqRI0fkhz/8oezfvx/TsQYeAi4hNlDmzwyX669Ik+ULoyQi1E+8vU0AuSfac+aCDjBZe0R6GqWno1q625ulq7dHdud2yDubm2XTjmY5lN8hzW19cz25J2XPO+64Q/XL0c4U/zIpOOYHH3wgv/zlL2XPnj1KW9bBdbKxpTknMjJSyXzbt29Xio5+vL/FU2ZPD5OvfG6afPXadGjUXuCI+t7hfNrE1tsmps5ysXXXqxN4/o4DbfKnF6vl/U9apKK62yGLUmP/8pe/LN///vcVFx3OFSb7MRMemA119XLTzTfJa6+/PipjFejvJVdfkiz/e8d8ycwKF1tX3/R7ahfg9N4hpvYiBzjNMM61NFnlufUN8ru/V2KK73QA3svLS5mW/vd//1dp7ZwF6urqpLm5WdlM+ZsvHM1N5P48nmap4OBgodY/2cxQE9eO2dMrRQ1V8kHOPjlUXemMGR9v8fDzFfHxEjFDa7bLgCZrr1g7u8TW1gHAdTufY/+VFO8vF61OktBgHyFLo4x5atxSb5bn+orNL0VoubT1NIgVSlBAgIfcdm24zMnyk+//pkw+2tmsTqDR/k9/+pNwaqfmXlxcrOTdAwcOKJmX5quODgAdHdJl5aSkJFm6dKksW7ZM2U1pO+U2zgYTnSYMx6QSQ9NNfHSMFLTUyEeFR2V9Rb7sx5RZvzdP2jdsBti6xBQcKF5x0eIVFS7mAH8x+QFgGChTd690Y2ClsUl6KmukpxwyID8rqsXa0OQ0jjGRFrnq4mT50lUZsnxRNLAN7mc9pbncqT1bb7sIpnXprnVs70F7BSWd8p2HSuXdj1ukp3fk7bNRb29vZSOltr98+XJZtWoVXoIAx/Um2pcJAUwat3/yk59IGQzeaSsWS8PSaXLUxyatPv7iaQY/6oH9sLZeiB1Pi+ZhsdqgpGA0bOAw5Hr4Bs4HtyL+TJidTQBpW2WV9BSUScehw9J58IT0lPVx3kDImdMzQ+xyZhYUJ88Rck4NEraeVoCzDH1t0DbY/+8/3Cb/75EKeX9bkwzCxJ2OH86P2NhYxXWvu+46ueKKK5TXaTjnjadjxjUwKVNt3bpVvve978nOnTvVc7Nkp0vo7V8U/0WzxaoQB9QBnGY13xJ4/K4Zu8GGAEK4FLt7nDieGecRoDBU4g8zdn2DtOcck/Y9B6V9f670Vtapa5nRbny0n9z5X3Pk+s+kSUyU/2mMHV4IcExbRxn60ulox4q36YPtLfKTx8plR0475EiNc3p5mGROrK9EWkwS6uchfjBNeWIbqRMiQXOnVWpae6SkqVeKG7oEE8IAiouLkwsuuEDJrosXLx6wfzxv8LgPNB47SFB++OGHCpT0xOjkERkulhULxDs9Uczwupi98Efvi/qDGQe/TV749IGc5Q0ZE79h3xEbFAaCl1zTMWkS2AS1P8xASQnilZYoJn+L2No7pLehEZq1VZpauiX3WJ2EBPpIalKg+FvQ5ogI1zLxXJiTrBAp7L2gzBgf6Q1gWeXgkQ5pbNVMSUG+HvLfa+Pky0uj5fIZgXJJpkUuyrLIeWkWOTfdT5YnWWRhgo/MivKRzAgY/MHhacdvhrKmSx1UnHJycpQni5o/TWNUmiYCjVtgEpT33HOPMgHpD9IzKkyCLlkjwecsEAGYNP6h7+3/iSmcoCNgfb0hgwGonmalPKjpXHFYwzlozDMoEIBPEo+YCKUcdUMOBQuTpuZuOV7QKNGR/jItFTIswT4SohImAAaBaeCaxEp0uLfklXbIsYJOMnq4Os2yJD1cPr80QUL9fcUCk5U3uCY5ZwCOj/D3kLRQX1mYaJG16RZZBqCmhJol3NdTOsF1Gzswa6hJwapsutu2bVM9njZtmrLnjqT7Z/KccQnMgwcPChn5li1bHM/CIypUQq69TIKvXCfmmEhEnzh2DfFF45KwsShOKgAolRlyTxNYi1Mz2Obh6SleMVHikxgrtpZ26SooUe3XYbpsauqUWdMjYHgf6ZROeReKGC/aS21cuzq24j0z4ZdZduW0wZUJrgdUlTZ2yOcWxEAL98ZbAyuDF/5wH4pwKr1NSiTBhnAAdX68ryxP9pPEYC/10lainTa7O5Ra/b59+9SLOWfOHPHz89PaGaf/xx0w6Ur8xS9+oYIodEO5GdNr2I3XSOjnLhEPcE0Ixi4fJ8RLcEmz8nFb6xulqxCKDf568kqg2FRJZ12jeMIeKIHQ1slxOZVT/jS0xu9gtGIODhKPzGSlEPWUakpRWWW7hGDQl80HcH1GyjXZOM6FNcHINT3hUbIgKOREUYdyYVJmbOuyyhy4Q7NiLGT2uDlA2MMHLxgsDewkOwsTGImPhFO4Be1QNl2e5Cd+aK+wEa7Qdqs6lJYNOiHoAWNI3niOcBp3wHz77bfl17/+tcNfbYKcGHDxKon42ucBlgCXoKTm7QWzkK2uSZq375OmV9+X5jc+kKZ3t0jrh9ukadN2adu6W9q37ZXmHXulc/9RpeCYQwLEMyEGCkmXNqpqiHU+BiYFW6hHUpy0HzwstuZWzOrQ/oGYNPjNMzPh29aFOft5w/+AeMGDe2imIrr4YRNfb7N04b15bytslohSYvO+Xia5an4kGCY4PdBp9tTEE7OHN+Rq3DMVOHBOhUzVEBU7kRAoTEsAzvQwLymo75ayRu0F7OzsFE7rlDezs7O1l1OdN77+jSutnPGPt956q7z77rt4zni6kA8ts7Ik+qffEe/kOJdA4FvfC6N5y5ad0vr+J9KWe0x6SqsgxvVpvgMeObiqZ3gw2owXy+K5EnjJKsihFk2D78eNaf+sf22DNDz7mpI7fX1McvMN0+W3966A3AqZ0Y6rAdc42QawdputU0ytR4Ep2DjtRCvA7kOtcsdPy2Tr3ha1NR3KzW0rE3E8QAt51xuaeSQVsXAfmR0fKJHg4NLRLL3wy1NZMxKZbLetV7YUtMtDG+vkg+Nt+msgERERsnnzZpkxY4bxlHHzfdxwTE7bb731lorwofuN5B0fI1F33iS+s7NcgpKcsru6TuqeekVqn3ld2vYdlt6aBnhZtPMHfcpAkxXeHyo3HUfzpDP3hHhgevdEAC+VJSPW+Nvq4yvdRSVou156um1QQjxlBmycSeCcI+Kail1CGaMS1Av7pp1MnOF7TFJU3inb4VcntUCJ2VfUIlvy6uVj/O3Ia5KPjwNkR+vknYN1crC0WSzg7JFBFvGGgVZxUHt7vA8zFK74IE9JDvNWnLOwQfN4cVon57zwwgtVxJX9lHHzMW6AybyZu+++WxgTSTIFWiRo7XIJue4SmHrsU5/hsVHo7y0okYanX5OGN97D1AyvCsBNOcwcYBG/jGTxXbVIglYvkcC1S8WycI54TU8Rb8iOvZi6bZjSaMe0gdt2Q/7shgfI5Osj5ugI8YT4oIOTcqgHXJvdaL/zWKF2DUydCQmBsmIZuDiM+8MlZeDHPMtPNIu+gtspb5B2NcrOVISqYZt8c2OjapbTcitMQO2QNzvwUrR1W6Fx90o1LAUFtQipq2yT3QBuOULqooN8JdwPSh6ndgN5gBNHBUCbB4c/VtMlVa2aXFpeXq787PPmzRt3yhBe2/FB+fn5Tlq4dxKm2YvPASh8gDftQRp7yum7dU+u1L26ARZnyIggM7ie38xM8V+5QLympYlPLGSzQLjlIH+aoOR0g0v2VteLf2GpdO49KM1b9yqXJAHdCQN7K2x93rBleuDaOvEF8IDy5ZMCH3SQv/QgCLiqrl0OH0XUkF3x0I892Sfl0807KuS9TUXiC6Bfd0U6TE/BGjgxrZPoHPCHQX1GEmI9MTK6J4jGdl/GfgLNhHAvXii+D134V9/aLdvyGyWvqk0KAdQvzAuUVUle4gvV3whPC0xc56X7y4nabqloqpeadu2ZPvXUU8pLdMkll6g+jJd/4waY//znPx0R4wSY78Js8Zs1zSUo+fC8AZhmAE2BEnKmRyRtnOdK8Lpl4g1QkmuaAYZeHKfkVQtE1hDYKeOjxTI7UzoXzRQ/cNGGF96GXHpc0847NcO3wzNkHyUb2veKDBGPiFDpgeuzs9MmVTXt0g6N1w8G9+H40VtauuSZV47LU/86IsGB3oh275X77lwE6xVenO4+edgMy1BIiBmR8WapqdegNT8xUL66Ih4eIE/FPSsQHZ+P6+8qapJj1a2Km1YBoM9/Wi0lDQhQWR0uF6VDcye7NVBkgKdcOztQdpW0yb+PtKnd5Jr/+te/hFyTrszxQuMCmAzvevHFFx3PxDM2SgKglHjQfjcImRC0EDBvpnRdfYH01NSJ35rlEnTuYvHCVEwgMnpI57NKpMMYkd+Qj1ixwQvX8AKYCdT6l9eLtbZRLCsXwgMUp/zraMRxZU6xZvjgPRBephJ80HIrOE51fYckIUxuONQLblhbC9Cg2YamLnnx7ePyja9mSwKCj9W8rl8P+zn1hkEurKnXZoJERMvfgGCS0CBvyM/wRnX0gFN2yYmaDnlzf428sb9KCvGdHHTLiSbYM/1lVSrEGXiZjFzTDC6aGuolN8wNlq2FHVIPMxJno48++kj27t3rBqY+kBTA6W5kkC/DvHTyToRReUaa/tPlpxVGck/IjJF33KhC2TzDYb4hkDHNKSC6PEvbqAzclMOgnVvmTRePuCgFZDM4qrIxNrY4gni1MwBouGdUpJK93W5o6+R6mrDYB+LBLhsAl2F2Vohs3FYmzXBzlpS3y9adlXLthRA3YFiHxOw4FQwaLlDyDA2Y7ZAxO+AOsuKP+A2EuzLYD56eCIssSAySRVDC/rCpWHZCMaJnyJ8iiW8A5GfIqTrg0ZoNL4c3zE2XTLPI/Fg/2ZzfqtyYzI1nTMKaNWvGjax51jgmUyDo3XkdAb7M0dbJDI+EF2Q8TxiBhyIzRtAGQCrbMwfAMAhDnavvp+zHKVonyqJd8P70j4owUc6l1dtOnrAp+sDGqIQ+feNJPnn8ysUx8ub7xZIDjboX0+zGj0vl6otiFTAhOTrOJoBontTJg54qpS1pW3ibFFFIwRYPuX5RlMyM85cPDtVLAEB76SwocBbI5j0wRSEPyUh8VgFwDnx5YZBsKwEwgX3aNullY+48XZbjgc44MGkKYtEA+sGZp6PkP8OTMMHs4QkORhvmcGgwL9BwztWPMbZBABBEnO77RDQABYC12mVQnufn7SFBkBWH+zLQRpmeHChhwZp4wvs+fBSmLSs4MfGt4Ux1iaBtROSQThb0h4ByRTyPfc6O8Ze0CD/lEPKliQvgFi+83MxBMihpxDuvd/VMf/nBvz3gXSIXtilrSE1NzbgB5mD36+oZnPY2moR+/vOfy0033SRMj+0PSl6AkefedDtimj0b1EVAcuQMAgHtpXRxdpfXKLR6QEsORoR7GFJ5nRA1RIdDAcogRLCTCKhyu8xpA890EN6ILpiGqms1YHoB0EHw4hg5puNYwxeGxAWCE/rjhdEeHUQab/rWB77gzKMLhm99MbR/xraQODaMe9VtyNrWs/f/jI0+o8+/8Y1vyAMPPOBwN/LVNVvCEHYW0fcEGGQBjVq9+n1bz9g3hFgMAAFdll2lFWJF9DsRFR7iJRkpMPUABATYcIlTND04TsR3AKAimSD8dsNWWVHTLU32TEqKC7F4CSh3DkXsilN3CEpPKGdKqO472waju9hQfCHZXwLsDIBpG1SAWPBhPFC/pzQ2XaIMeeedd6raP8xtUQQ/r2fsfPFd+d/inbjEcWETUmOpxGhcy7H5jH7pk/a0abILU1w7TEo0xpNiowNkwewwCnqn1K+6hk6YuLT7p+E+GgUTCEawYdUOc5Na222SXwK/tr1pfxg0ExDe5kUAndrlVLtmT3B1swvLAYTY2bE+COHTboGckrZkAnQ8kGEOGZvuFBYWys9+9jMVLeQApQ/jHs8T38U3I8RsjrTXFzguznHSQ7kcG8/gF16bbj3NlI2+QOlpO3gUqRfwa2PwyGyyM8NkOcLRTsXrw0j1A0dqpbxK40jkkfOhpKgpulfjmLzNVphwjiHCSCcLbJdp4X7gmHqP9D3D+7R5QqZlp/sRladMxIB6QksnUazirMYc/PFAYwrM6upqeeyxx+S5555zvIkmb4t4ZV4g/qsQmBG/EAOPBxEUh2fBBwQrIxPKmjB4VEuHM3+N8lNknCYN8+wPXXudcFW2vb9VrE1aUEUqXJGrl8VKVDQi3el+GQZRZK1HbOWHW8ukuExrh2Fua2E0N3Mat9kVHQh/Le09cqKwL603EMclgrPqaRXDuJzzIbw484btpifjzugAKHp2MYLbGbPpystmPOdMfR8zYPLNW79+vbzwwgvqhtUNYUrxTj9f/M+9B5r3PKUdmq14m8PSsVubpxgVZEMOjgpGOMPApCJrpbeosxtY6YZM2SotAGXn/sOO8Vi9NFY+c34S2bpj28m+EBe0eb6yvlA2flKhim5xVk6H/XHVkmgY0wluO8BxbCtSK/KK+0w8kdD8oxBNRHfkSGcSE7imjWYjg3ZOedcfvnMa3XWi2YglF8cDjQkwOS2w3MpvfvMbJ8O5XwqCKS78sXhi+rbhIamxRUhNQNQMaVMGEXhlwC07iyvFB+YZD10AGqMnRVnSC1N1TzteBniK+NeDmM4OZEv2IqW343CetLz4b8fV05DzsxSxkTArSk1tG+InPREwDEM/zDkq6NhxJKdG/iHoog2g3JAvD/1hr+QXajnkYVBmvvbFGXBNwm3YqyW+qVNxTgs8SqXV2nRKjTwF3BI2c1AfgAyXcfoKXGvk+MKf+ME3AcB22ow93RgAho2MRxoTYHJKeOihh5SWp9+0Z1S6BH72ITGHTsdb2adeUOCXmFnQxMPF2oIc7xYAM78Q5VUwOBYI7mNAivO0tou1rkGaCkqlbXeudBzJk+68YgRpACg0prug/KJm+cHDu+TPzxyWdBTWmj0tDIW2wiQlIUgC4Jr0hblG2UAByA54hSpr2uTpF4/KM68eRzq7BjZGla9eHo9qH4h0AseytiPSCccTHr2IHGpqoX9fAwtzlmKCEAyMn65gid3qheBL0AGu3KoikHrhmrRB/IVYhB3ch1g9MeOl87R1IzcPjgHIlfQQtcLnbxgKvGSIrrJr6S5u/4xuGhNgbtiwQTZu3Nh3I4i2DvrMAyhEkA1DNS4Jk0gf4elCBvJOWglwvIXRQdm+smrpOlEk5oWzR91qRC7dW1Ej9a9/IG0fbJXuEpiBmP1FuXIQQOp9Za8bGjtlX3OXHER00ZvvFSoZLQJacwpkz6goPwlGplgXBrwMwRU5OKa2Dj5sAI7EepoXrk6SO2+dJXHRds+WlcoQ9mNK7YYRtbEFV7HPpsyZj8BUbhADNfGH8gGopqlbCuvbpQjXyIOvPK+6TcrqO6UaAR0tnXCZAqwEJxmut0evBAKMYQiLi4S7MwF+d3/oRUwD1omV8MZLFuWoA7O+vl7++Mc/qro76oZhSwtc9mXxnb5WrN4YDJhY+KaraRwHaMwBqRHTL5HO4+8jCrsFdQEqpW3nfrEsmIkBU/OY/uxO+9MGELYcLZSm9ZulN794QHsWGLNZv8gPqQz0KxOMFLuUvxqKSSPiIOmZoZbNTFxKg61tqD5c3qoUGWrZ5IA8Rs8R50WiEHF+8bmJchum8MVzKQ5ox5mQ+8NrkGjDbGlDjSLF5rABYA30QaEFOxCpmXfhmAKIEXuKm2RnfrPsKGiS43gJGhHYwX7ymur6OF1vhm2T+NwJcnJiT7tsiVtyELMBxkse0KgDk1FCu3fv1m4WD9QcmS5+K26ERydEaBWhfVmBUR8N+2PxSVkprSFIIag6hCkW8t3+I4iVrBEPRP8YXYaOpzicLxwJEkGCyZKx6VmezYjcaZAdQVY5il2ssEFNOwEuvUhwvHiUhwmDXBdk8UYYJwzUGF3KYm0ATAOyJCvBnSoRnFsNr01NHWIza1ukuq5LAyLB2o+iI3wRvBEq61YmyBUXJsqMjFAMPoM2EKTM0jFWu10T5xFQBKeOVL6SPpBfPQAiPEkpQqjbf443ynuHamUzPssR4kYgsn/DIR6mDsU/TbBwPou15emZoyPkbPvMRx2YjKtkpiPJDF+tZc4V4hGbLb122UXVATJpWXvGx2IKjBWfjPMR41gCNoS6kieKpRkacehXr8VAuZb5jOf3/27GtNxby2QvcKaQYIn36pDFHjWyzrtCMua3yMc3ZcjOvSGq5uW8WaEyPS0M06sv5Cz4fuzcxKjQEDQkzvaNiK0sLmtDcdZGOVHSIoXFzVCGOhV425AKgbxgCfDzQl4N8nIgh54L81IGIoD8/JBAZm/bBs+LdLFEoTaVsnVejz51JXDyYvjt6WET6GayrbReXthZJetzqqUI0zU5sk5+mJUi4cqNDwiWMKSBBHh5Y9r2Eh/VFuANVtoFw3kLLB6t8J03QbGs7cJL1d0qVbRA2BuiI4SzHRkLq86xbvzZolEFJl1aLIKqBhFTsCkM6Q0zzlfc0moP9zfjQSOtZQCZvRBVlLkOOTjvwMOC0ntVtdKycYcEXngOTEvR6uEOOGmQDYxU7zl8Qlo+2avsonOvXCqfy7LKlX4VEu+BupVQOjKunSY3ov6lIo4MgGfH3iCtapsZeBTl4yfRCJhYNDdCgcgGrtXY3Cl14GCNzfDaAFCRKIcdG4WAFLgtyaa0tnUI8HooJmtt1MVJxzU185H9J06qhTL074NV8vS2Ctl4pA4BTlobnrhGmK+fZAbjpQoOk1lh4eovKTBYohESF4QiDya7EkVHQC9CDFthi61rRW3OznYpbG+RYxBBDjQ1yr6mOslva5UujBGdIIw0+p//+R+lwDKynQW7zjSNKjD/8Y9/qGAA3gRtZz7py2AaQhQ6f9vvTIESVzVjo+Glh9zjId5xcFEmr5T2pjJwkzbpyCuU5tc/RK2iz9vPHvqDJQY7d+yX+n+8Jm27DqgTFgQUyOfTsiUM7jkCRA2t8eJDNzvgCAU0DW1qXwjybUKCETSh3yivQ0DageTcALgkEtGsvZRQ+4jcklo9Xmm1kfb793Jr5FBZqxyFhk/inlAEZ8xFluPa+GS5IiVDZqJ0tydtvrweODIVHo2jaiBW1cWQR++PtyoAaR0pnQGyTCLRmAmafLe8VFEkz5fmy9aGWmmGBk/itE43Ml2Vl1122RkvzDWqwNy1a5eK7eONmVCJzSt5kXgGx6oHxW0kPAvlButB3rRjDsF2PkwP/yjxnnmNdBVvk96qIygP2CwNb34g3svmSQBSLai4DEYqAghG/bbNO6Tuzy9IB7R6nXpbkRE5+Kn6Yaf1qWYJOw6GashG0aQLkUr9RBRyY38LYEnhEtQBbf71/dXaD/yn93BmWKRcnzFdrkvPQs44ODaA0wtO16NbFAbrA0BvgyjBGk5WUwuqKWhuTz8A+iuJabIsJEL+WnxMni0tlHJwVBITA3/wgx9AErDK1VdfjXEbVbioawz2z/4IBts9/O0Mm6ILUp/GPSOQDBadgchvGJGNCGSTeEgMfBlACODwip8PTnse1Edt+ugqr5L6J1+U7vomTWkacBJaB9ppWmnftFNqnnzJCZRzssPluivTJYRpCYMNmos2x24TOgGlx6RKxPRdRUWXI2EsnHniGsPs24lvXgDQxcmp8uDSc+TuOYskPSgE5skuRKAPlNedTuz/AzK0MEEPGaEknt0D4E3zD5S70rPlrrQZEocIeJ0Ynvjwww8Lmc6ZpFEDJssE0lSkCK+8F6ZwU3Ccml7635AVPmHExw6wUdIbZA6IEr/sq/oijsAl23cckCYkjdmatemsf3tmROA0fvCJ1AGUXUyxBdEHfPGaRHn0J8tl8WxwYsp644HIJbvhcoWM2Z9MXlbEayLWE7GSRvLFC3tdWpbcu2ClnIfpm5YNAnLExCBsFLh1hBahIUjGEgYm8pWENHlo2nyJhRytE9NfqK2T8ZwpGjVgMsiUZe8UgYOZQ5MBsghM0QPnUG06x5Rlj2wx3iztgB4I7rDM+wJiNcPVLmtrmzS+9r60fLRdVd0wHm8DKDsOnZD6f70j7ccKwI2sSk67dG2S/PBbc9VqE1z2ZHwQZU6aiPCcXLFvMFOaw40zJsPdLktOk29mz5fZ4UiZwMwwUnKcyTYYIRwEztkvUyAIL8FnohPkgaw54s8QRDu9//77aoU4/fdYf47aiNHUoIdMmRCsYQ6NE5Ml1KUNktO9FQNks9Kc4/zmK0+FbxBMR+vEe/4XsF97nF0l5dLw0npp27ZHLfakPxhbbYOqU9Sx9xDMTN1Khl2JHJjbvjhdli1AJuRISwbqFxjNT4IRDgS8XQNaZTBFPdJ1P0W1t4YmzerNO58VGiFfy54jc7HCxumAkhmUDXDzdhgjoqi5s+qb0Q0J0PpDzromJlFuTcgQmqJITBx85plnztiUPmrAZOSzHjJlQrk8GtS1IAxnwY6l86T8kLRseFiaXr9bOvY9NwC8NC31wtgetOhmlIf5rHowFFPbUQKm7u+vS+e2fUiiAgi5GhmKaDW8s0nIVUkzkYlI78r558SLF7iCK8akNTjwP18YhqcdL2zE6mbwyJzKyQObc2xphgvzGIoSlFc1AZPklgNnEebocKGql9+tk/pm7WUNhJnmW7Pmy4roWLgURzZUBHctDKFPHjko3/t4kzx64FMpbsbLQQIIbUz6I/c0ED1DtIP+V0qarIKy5W0HLpPVGANxJsi5R6dxRaeQKZgzWCqP773G7/oatiEtr+PYZmnd8lfMaFXiUbBT/FJXY1pJ7DsI38yIOjKFZ4jvim9BJCuU3uKdYK4ok7I3V2qfhRwGDdw3Lkaa3v9YKw+DcwLhp/7sJalyyZoE8UW6rGtTjdNlHD9o3K6BV+f510/Ilp0VkhAXILfckCXZMJCfSjuOBvGFA9yM4I0/Ppsru5D/nRzrLTdd7iPZafT89BGN7o0A46ZPm2XfYQSXAJcEwzkx8fJZyJY+xrm977RhfTOD4x2sq5G/H82RHVUVEuvnr1ye35o9H4Z4CPrM9CTXpMWjn9UjzRIkn49PkcOtjVKEVeb4onLRVxrgFyxYMKzrj/Sgkb2GLq7miE7HPpMPqmB4IFLF+PTt5zD41taFwAU7N6JZqP3wawCixiX6moY8Bs3cB/Km/3k/Qu43HgQDXvHw2rYflHqYhKr/8ry07NjnOOUi+KKvBjCZJHbKYML4FJW2yJMvHpF/vZUnf/h7rjz2txxwZoMz2XGlYX4BuF5Zny+PoJ2X3sqXJ184Ltv2o24n3I66B0i1BG5ZVtUjH25rkQY7twxD9bnvzF4oQSzXfRpEd25nL2JL7cb28vZW+UvufvmgpMhhrFf5+C7A7w0ldlVYlKzEnz6l0/ryf//3f6fRo+GdOmrAdJ72MEVQw3FFmOa9EheICWFuiuAia9nyCDRV2PWc+Aj3YgBhqPfNulD81/0IOULzgHq0S87JWElo4lYUYyUlxlrkBiytNxN+6VMGpWqBAfMIJrErAx0Iinjp3yfkL/88bFfSXLxl9vNcfbCbe/ZVyu8ByooqzS7oAa+XNxZEZVU3IxGon+a2yjFErtPubwFIzomJlfMTk+GcOLXrGtvld9o4l8VgkQC0FapMd3gBW5vlp3u2SyvMTYqgHLKyiZOsiR00JSXCi3RpZLyE2GNjaXDnuptjTaMGTGNUioqWxlvqkjC1+ERliE8SwAnQkXNaa4sR7fNjRNy0Yvpz7pJShjDKBKflwvtR9Gqty2YvOz8ZUTvQWuE5GRFh/Fn8/4oLkhAGqiGHJVoe/sN+eQHxlBRKODUPRQQkj9uXWys/fGiH+lSRSDjx3MVhsmhWAMDJupp9bbV12NQyftVYqZcUAlHohowZ6vvp/iOsgwG6r2Zly9qEJN6FanIvFu1aX1ygQuO4zYYa7wPsdziSIsV0TOnZgaEw8GvnMv/cuGDD6fbR1fkjHMWBTTn5Uzta4KWBy63v2TtO4NTSC2+QZckXxRye5NjetuclVAC+H+vvlA4AAMHJadw3bTXiOn+Hc2+DbIQUXzsxgufCVXHKN81DR0Lk+MEwwl91UYpcdWGq4p5sqwg5Ot/96Ta5/ze71Iq6Cngu7ovXpJzayuJWrx2X/7p7i7y/pQzMXevQrGlYM+iaGFR4YxVg505WoDTgp7ltcMZYlTsyKyRUzk9AmW0qiqNAvFpCQKBcnz5dZsCvrtNzx2Hig6yuwEqGQLHBDj79GMq7KVCQloYgzdq+j4Hg+vI2+nGj/Tlqyg9X4WKQKWVNG/zcPa0N4g22T07Tf4o2IdfZK2me+C/7ijRt+IWqiMuquO07nkUEe60ELr5FTFHzIGPCO6HMFXYkwAzlEZElkrRMzHkbxVpDTiayYmG0zJ4RDjDxdpwHXR0w3H84dVp6sHztS9OhlberOkMEVllFmzz6VI78B7WGLke+z7moi5kO7qrbR3lMBQJ1t++plDfeLZRPPq2CzIhnYPeTJ8ZZ5K6vz5HVS8gHsEyLoT8E/+5DnTARaZp6GKLIV8QkYDqnbGk80nDSCL5Sq18cHSOz4WM/1Ij1htDGlvJSqe1oQ9AHlB/sN0GEsJlgyjJcltN5BESADEug+GIsuihGIVJJr2M6gq4M65RRAyZXsiXXVMBkvH5TBew7GAS/4AHmIHJNsz/W61lwLeqmF0vL9mcUmK2ttVgA6nXpqTom3innIKodAIyYgYKqQUqR6kWYlrmhWKRgq9jYvp0WzImUpDgu9Gl4ovrOU/gkSCgKLJkXIT+4Y66a0t/bUiIdiPKuxaoVm7eXy5ETDfLMyyckAhV6w0O4CptZVW+rhkZfhQDeskqUBWToG4jBwNPSQ+Wu22fL5eclSqBfJSKnnPvIROFt+5qkxV5MNRTuwMVYuvp076X/bTOeM8Qb6wLBv76hpAA2zU6Ev6FiHKKLUoNDxA+ytU292AMZCaf4ZGjzWf4BsquRK9Bh1tN98/0vNEq/Rw2YqampajVYVckBHe+uzYcLsVo8UGlD2S77dZjxmZ4RKdC4v4031Udadr0A8xFcXp0t0l24AwVWj0LB2SBm3xAsJgX3GR6stRv2t44G6W0qBZA1Wxy50axpoeKNtIXRmPkITi4DvXpJjAT5g1OguOprSCYjB21DHk8JuCf/SFyLh/JkF+r/GInbw0K9Zdm8KNRrnyHnrYhFTpAnymsDsOwktF2dOlHgYNfBdiShaWCOAgBmIaBi9MmqktqSA4IkCDMbgUkqRegba7tT4bLRVsquaV1R+9U/zAhZEAWui0lGxD54KBZpWLFyZd/+Mfg2asBcuHAhzDRhmj8VD7+78iiigyAvxkxXk3n/vpNrWjFAJvjUAy6+SzzDEmH6eR5BN8fAaZsxiFhzEX/OQ+7cCt/t1CSsIMFyLUqZcOZGzkcP/xfBSY/RYnDORNSaXL4wCuAslE9hi6xFjg0zGQnGboMXxQf5377wpAQFeEt2RrBcDA550ep4mZaGFwvavlYbnaDs6wfD3I4UoBJwGSPgEVmE6Tsbslw4gn5Hm/hkaBsOBtf0UuKRdoUGyJiOVA4C09hBeyfoR4+CQnYjopBWxkVI/aw4WXvFlfa9Y/MxasDkksRRmIKOHkXFCgCztxZZhzV54mFdfdKeE6C2oFjxOudWCUlbLu2fvijtue9KT2M5PDvIIGTqAZHC11i3s8DEpAiDnIjFoBJQgs/ZXHXSSw5rp7okjlQr8V6UjBzwWHhvGpScue9gDcq4tKrEtB4gimCMh7lqBkxVqxZHy5zp4RIVifhHVNEgsS0bixooj08ft2QtrY07m6QNXJMUjoifuREIOFEAUZtG9R9YgeKORt2LYW+qRzom8bK4Iio+kQBnCF6+5uhIcNh+Ni9XJ53GtlEDJvvAFbd27NihYjJtmCJ68naIbcYFiGxNgJwJYA1C3OeB+E1bymIJTETs5dpvY1VcLI9SuFOslcewsAOilhCbqGI7sSR0V9luNZVTSYwKx2LyqLhrQ+rqWBAB74lBiAbQoqD90/9O8YoKD/fxquD7ygTI1FeWXFHpEdiug1v1y8rp3/5CqQ34hzbe3tQobchoJEVgGp9PYBo4mtoxCv8IN3LlasRatiMTVaco2Ck90W+trzjKIGbox+ifVITYZy82NMY0qsD8whe+oEpWswYOzUUdedvEpyZffJBi4UrO7H9vKscGtk1TeLKSP0MXXwdAmxC+iCoUUBpsMAR37Pi7dL6DyhiQMf1hb4xE4piKoB0YRda/eafftCMyv93IaXl9/unAcjoBP7iPIHXhJOl/aL/fgC7kY7pjSVRsiI2Dx7pk+742Ls6mbISpkP8SERdJgBv71a+xEf/swEyTA/dknarzqTWT6B8EbXv4MLBBLNHzt0bckWGcOPweDaOxFStWqBW3CEwK+T2YzrswLfuACwo44vAJ3hG8wnyLVToqLRh4ST2sqJLbDc7TpXlSuPoD02w1+fLkrRNUjMTmarr0iZ8obAIw6qUcSWW1jW2oDuwlYSE+kp4aJLOzwtR6kQwutrDGur0vJ7/CYHsxR/ZgcSjk9xg5Zhtu4ZdPlzsi64MxTS6NipVA2hI19jVYgyPaTk06H9VF9jIKzK5RzwgJl2QoNVTWFDfkdY0VEPpdqQPnVSEboKW9TUKwzyCU9Dvy9H+OKjDZnRtvvFG4SCkzJW3dHVjy5BXxmXO5+CYtHNGbRn+7eo520cfMIlzIS+FPpsFS6TjZOAKPlPqlHJr03pxaWb+xSD78uExKYDhn9QoakHUpw4yLMfcoCBr0TGj6F61JkksREJKRggxHLgeNC53sWrx/I/FlsDFvvLMMfdY0eYa3MRDqjU0N8taHzY64iQyYbM6B/TIAJjfc8gBS4oK6Gc6mFCFcHTXgNLWB/aiH7fHVgqOSWwumYafPpmbiRYD3jcTmeHMumuW165FV+XZVqTxVmQ9VPkQeuHybrFy+TJ06Fv9GHZjXX3+9MClNrZyLEe+tzpfWrX8Tz6hMxGfyPRs+KVD2E2eU4M4BRzOciqkYc7xcPE9tO3Zs310pL7x2QtZ/VCrF5TDkI8tfteOyKz0wIPdIHdbk2XeoTt7YUCA3XZ8l6xBGlxIfpPSv/p4bl82wfwwK7igHKJvUIRQRWmGv/GhXizz2TDUiijTZMgjptpcnp0tacLCSV/uDjtN6GeIhT2B9Hk67maGhKk13OJ4h2lLbECK4obhA/l2QL/X2pVvCkeZ7dVoGFkXlYlv2p8eH6eLBsN+5LY3yREmefFxfLZ5YZeTtN9+YWMAMxsO95ZZb1ALuKtUCWnXbrn+JXyYM5vOuQbAAXYmuYDRweNUz6gdMgc1TCXmQy7qQ0NaKQgSY9weejC1tKJJK7virP+2XfTl1iNzpE0QDAYZYiwVGZz9lw+vGS0SloBJprJUAQQ8GqQ7529v2VCkwb9tdJVdemIyiWlFK41aoR9+cZUFOboAVp0MGBGPVM3MvzF6e2IZuFsEs9N7HzfL3N+tkD8Lb9F6fBx/2Z5LSkI7rM4ATkltVdbTLM0dz5fkTh2FS8pGrU9MRDpcpqUHBinsSWHpb+oPQOKxZKhAnu74oT/58KEdy4PEh0av0DYS9pcM9ycJd6lxMHSZ46pzvR3u0zAk60tYse5sa4CblrIE8IeXV0682+p+jzjHZRWbUcV3Il19+WesxjOYNG34j4aFJ4pW2VKx4uJQhhyYoCRh8+yyuDqcx3gw/uZUuTNgSFTANARF6m+SKG1GP8se/+VT25taBu2rXi0Auy4zQcKX9zo3E2uN+QSgW4KdAWQfZ9XBdveyuqZT9UBKO1NepRC0WN/jHy8dk94Ea5UtnhHwyygiyInAgFwhgB3k/XOEMfyauD9lTiwUj2hB43C1VDSgtWNopH+1okdc/xCpmxaigYX/h5oRHyjey50oG/OOqvIx+A/ZPbquATPefilLJra9VNsfC5gbJh8fmuswsyUBwRTj6z4odJIol5KR1mHoLGhplfUm+PHfssBwFt6UI4A3z0Nq4RLkxYyYAapAS8XxYerE/UQyo7uqQw82ojmI30/nCbZqUlNT/0FH9PSbADMRCTbfffruyaR44cEB1uLccS+R99LiE+GBp54TZkPsgsw14z53vjYzQAw9aL7hLbHngfDNclNbmSlWsimVbIM07ndiDmM29udXy678ekN0HNS7BAc4Ah/lMcqZ8KXO6TEeBAAe3MJx9KYzIjTA6f1BcKE8h6nt3TTmAoRXG2gMZldN7akKArFkepwoeZEL+tKBQlacHKqphJd3eLkSpYxmTTvSpEcHqxwo6ZVcOKn9A+y6t7FIyLS/H/iQivuDehcvhG49TS/K5eleZJ86pPgUau7/dY0NvzR9z98pH5cVyTUqmeskiwf0ZP0mOxun6MED80okjsqcWBcrsyg5tlouhYN09b7EkI9+HoHMQ3xQ+x36dgIFASvFi5OBlILBJjIugQ2UsaUyASXPHqlWrFDjvv/9+4QJHpPY9ryKyHRXRzrsD4JyD0RnaSGucpflgTP6R+IuGQQ4eIvwuK0dliYpWiUHVC/2Z0mX4xAvHUCgV8p2dFkREyl3zlsqlSakqcptcRXvM+hHaJ7cGQdu/NiMLMYwp8jQivxn9fRTcswUchZz3BMoRnig6gmscUSdh2XMsreKlMjMZW0nfel2jvf6nc/OKuVKMmAdO+f35S+TCpBR1hN73foeDs9okJTBIbkXeTytCCd/BtFzFaHIcSA7KP1IwZMVAxLq2o4+1BnOQ2ol/QfD4rI1LkDtmL5LliPV0AiWuYYIcivlJP1x98tlz4av9ACX/CHoSl5Revny5+j5W/zzuA41F44zPnDlzpjQ1oSoZUnt1p393WS5MPu3iG5kqpiAsYo+31vDeOnXFxDxVDDQ1ZxK5jCD6vbdkFwI9Dqnz6HVZCb92fAzQAaJJ6MW3CuTvLx4Gx9KmpjRwyl+vWCsXx6cI18AZTvAtAeqLe1gWHSeLI2OU7Ec5lIEP3XqH1BUxeBBdG1HKpR4RQk2oCMz4Sm0I7QfYPyzgeCxYcA2UjvsWrQRA4gbIlM5naL/YVjwCKObhXKZZNGCaboSv26j8dILjsW9G47neVjrkfqZo3I0XYWlUjL6575NKD+1XSOYzEp83S8n8pfC47G6uV2IEx5VLSVNcG0saE46pd9iC6eWuu+5SEUesLqwEa7jl6Ha0tdVL4OqviU/2hSqqRSkM+omGT6P4SA+RmfXaQ5LUERywPHCvPFTqXTwPETn4XY5o8Q8/KYP/WTPP8MD7FgIEABiN46hZzE3DIoKT6cdzwW1/tfRcJXd+WF4ke2qqpAgxiSUtTeBO8KS4UATovWFCVyjksXgYzRNhL5yNyJ5VMYmqPQLMCKyhOsRjk4IC5Xtzl0AcSZe3CvJkK8LW8gCYCnDQZoBSJwuihFhkKw11jZhleVFiqhIXGDDs8prglpCL9NMdnzx2G8rGbK2Ht83+MgYFBam6Ro6DxujLmAKTfWZgx7333quW5Xvqqae020A98I5crDGOIA9fZEwGLL5BBQ1boRU7uy6hKRrYKbMnmX1pjsxUYXMMk2O42R74ri9flyj+UER27quSnMP2wgu42qXQds+NT0RYF80iwwel1lHtPwHK2MsF0VGIZ4yUOmjJhS3NUgiFoArxjC0ARSemPAZDsFY6fd3UfIMABBa+SgIwkzEdB2I61fWNkfSFvfeG54X55VnQqFkm5hBEjLLWFsjFneCWvUq5YZ4QC2tNh5KXigpwfghI4dTN+xhA5Ja4H81Y7Lz3GFIwniw6IZVQfkhs47zzzhvzRDRea8yByYvwLXvwwQfVjdHGqUwNMJR3lxyQ3uYKTM37xG/BNeKbuRohNmFKyCZAOc33QNChrGPknD5hGdIVNVOs+ZvZvGzfW4WU22aZOztcco8io69EsxuyWMA1MCJHAhynG9+oDynXDo9CCe5I/C2IxOKo+nAbO4g+6ddjHCQsMpoYono7vH8099BtbSw3aDyTWjjtnskQU1QfDNfntYd7XRumcMqXzphl2RibPA6D/HaYmCjCkGJiYuS73/2usRtj9v2MAJO951rYv/rVryQ6OlrIOZVChGnS2lCB6sHPS0/pfulIW4HcntXimbpEvEIToY3zTdchYX8GsBGasZiAV+JS6bYD89N91cqrQ225GJXRmmHbJKPl9DkTXINcpl8r9sZG9kHOwfYJONgJRtbIIGexyZ4emxS2IXgYIsIMGNOVbO3iePZDK2Yygj4Q9ahDb6IbilzTQCyR/WR5njxbVgCFS1OI/GCSuu2228Zc6dG7MWbKj34B4ydvbvXq1crcwIWpmAqqLd8BfRA55t0le6WrAlXeqk9g9YgS8WAEPN5cqCHKI6KM13h7zTCK9yJguKdkp9g6mpTZyB+r0MZE+svWXeWq9rknHvxMyHTXZmRKBFJhRxOYxnsaze/AGeTVXvmkslQezdmLFFvk0+P+GWjhA/GAQBwdwtNg+TsuQcgIEgPVQyx5CXL0w8dzpArigU4s4nrfffep2U/fNpafZ4xj6jfB9AuWUs7OzpYnnnhCPvzwQykvt5t1wA17yw5KK/4EKRkdCDI2R2Qg1TcZJQoR1Y1odoFJhEVeBSKA2RINjlusmt7wUYnEo0hBHYr3kziGtP+NRQiZusAY/CNnZOTPm4V58vSRHHWF/bU10gbOeVkS1maHMjkY9xx+dwBKhghCRjYqPGQA1bB/vgl/+K/ycqWIcqedZs2aJXfccYfExUHxPEN0xoHJ++Kbv3btWmE00htvvCFc5eLVV1/tW1CAB4FbduZvF+EfyQP1kBQwsfQxwEnu2dPat0ZODdyHb7+HNOAWTVDnKROBS7KfRsIEKz7Q6PnJCfZoY538bPfHsAA0yxfhGKBcybduZLwTT4Sxn7AowKbluCztw/kwCz1bWiDPlOWr6sL6ztTUVLn77ruV0jN6HFtvffBPeAYHM+0OftJo72ECGznn9u3bVTwno5NGQuQmnPh5R8yBXhIVL39ec77MQLqCS410JBcZw3MINhb6z4GJ5sGd2+SVgmOOq9EofxEM/jdNnymXwPxjwtRO2/CwXz7KlKjBjjdX+0TLnngBGAizAd6tv0L7fq+mwlFRmBemsvPII4/IVVddpTJgHZ05A1/GBTD1+2S1uOPHj0tBQYHs27dPcVLWddcXG9CPG+5nJGTL1y+5ShmVJwIweV8EJ72DJxA2+HsUwPrTob4SOLQyJEGhWxWXKF/KyJZ1CYlKA2MQtoqod/VglGoPAINDmlvaxEMpMxq/fauyWJ6BL30nvEdF8Ovrnh02Q184F3pYtmwZwgtHoFy56sspbBtXwNT7TSZOj1FZWZmSPwlMRipVVlYqeyjrcHJaoU+eb/W7776r/vTz9U8qQL9esUZuyZqFuM0z/3D1fozkk4pyBaZcypqP5+6RaoPMRxtpvMVfZsKeeWFCiqyOTZA0VBhmCi5JK8+DBigLwC1lQnAv8l1USZhcuBb/g9C1TfWVcrCxQUrQLj1ZRs5LMYuFWpcsWaKes2r0DP8bl8Ac7Bmwolw7vBx6HU4qUrSRslzJLQi10wNG9PPJF86NjZcn1l4iSQDxRKQq2BnfRUDJP44dlE8qyqUDTggdRFTsYuGq5MwQ72+BTx3LxsCYH4LnYoEZywS/eQNC+GoQhMEIpWL8lQGIVcgCqMKz7DJIcXzR6QO/7rrr5NZbb5V58+ad1cc1oYB5sidFw/0Pf/hDKSkpcRymTVgij56zDrWApkuwjz1a23HE2HzRr8vWdRCN9Eo0tLej4lwulKANxfnyJlyRhxpqAFCkD/fz2TP9NwB/PnBJApa4eI9aIoV2yXa6gtU07twTTtOMoWVQxpe+9CXh8in8fbZp0gCTChQN+L/73e/UgvDGB8sCAj9fdo6sik20py5wjht9ItfphoDYAlm5HooGi2dFY8o9nUrA7CXBSSL3zIE8uB12zo9KiuCORBQ87J6dUGB0X7Y6cBj/2Fc6PRYvXiwXXHCB+svKyhrGmWfmkEkDTD4uFnt67LHH1CoLNN4baQXqit8zb5EqhhqM3GgaXJwlK+PRp/adwKETsAOuvdyGOnmnOE/+gwAL+sp/tHCFZIfCvw/F5XRJrT+J4NQGxGMWIJQwDzbO3SjZkoO0h+PYxoDeRkzfg4GU3JEyOaO+KEcy3Zrfk5OTT7dro37+pAImnw4VIxruf/nLXyrlSX9i5DkzgsPlS1kz5BoEP1Am8+aUB84x0ukWpyptuAvFs2oQzLG+KB+yYK4cQPR7E7gm6fFV6+QLWKYkwGeUTMbgyCZq2DD79IBTNmKmaEacZgs8ODvh1/5z8XHZbo/R5PUTExOFeVgrUdKFBSn8UbmNgTU0lp8NbZt9Gg5NOmDyplmNbOvWrXLPPfcMqONIjXZGaJhcnzZNPp85A0UGoCbAH09war5vbdoc7OFpZl/N/M3pkNPra3nH5Z8nDsn+2moVaWQE+t+heF2NQBLf016kAK1CAjG1dqKgGFyJdvmSoQTsRz1y1h88flD+CNtnOwCr09NPP60UGl/D2j36vvH8OSmByQdOHzz98VzZ65VXXlExofpAcBqn75kFUs+NT5ArsezdaqTOMneG0+XJyIoAiwpwx10wXb1fXoCI8hNSjmAIci9dcmULXFbvazPnyX/PnofQN9SkJ3s9XWqDgZz+bciVOlGMaIR/+3f5h+WR/KPSwPRmO/3sZz+Tb37zm+NCmdH7NNzPSQtM/QHQvMTEOAYg5OXlKW6q7+MnPUQ0XDNwN8EvUDKxmHwSYidZso+r2BKnVGSYV10Fc8sRyHRFLQ3w7MElCvAbNWO2E4RkuVVx8XL7zLmyEmBnZNOogJLR5UwiwpIoOhGUJXhJHjqODMqyAmrQmKUAAAv0SURBVMU19X301vz+978f86Qx/Xqj/TnpgckHRo2dqwI/99xz8vbbbyuAUlHq742lS5N1fHzwZ4Zx3gw7H0GlUlYx2dNdSM5o9JAYB4Ql/r4+cw4CeKdLHOyLrKo2koBgY5vqO808Tci8BGdW/lZs5BTeir78GiLE44VHpNYewU658ZxzzlEyNjXuiUoe4CT3TdTOD7ffHCwK/szso4stISFB+X453dPfrIrNAoSUDRmFTq22E9s7MPC0/enmGKYaOKZrAJbtGsHNYIgwpAcnQMGIgFjgj/VzWHuJ7Z4W4cVCXRbNV2lviC9ROSo3P40iBPuQ781rsD+LFi2Sn/70p0rZOa1rnuWTR0lVPMt3MczLh2CaJjDnzp0rLADGcDsqSVy7hosr0eXJwrOMsFcBEgQr/jjgNPfwk3lMDHZOTU1VLlGu4EARgcQUi9cLjssRBGFchryci1BHncln/lhWkLAfGUDBtWFgt5Fr9iMfBFL7oTIHQcqXgvGutEmuWbOm35ET7+eUAqY+PBxA2u74R9fbV7/6VcU1Ob0TZMXFxSoEjz56uj9Zxjs8PFwZpFNSUiQUUeV0h/Jv8+bNSvtnRBSBx6SwT5GsdrihXj4sKUQ00CxkQ8Yj+AKrVQDYpwxOsGgbozr6ncgXJhxycALckbpaRc7vWM9Tv9kJ+jklgWkcK5pRjKaU9PR0tds4RXODrsDon3obl156qUybNk25Q9evX6+AQe5FgG5G9YxPqsrlyuQMuXFaNsLwYpE1iUDnU7G141hesx8uVQ4UXY/J8CwFwQRGGZMvES0Rk4FO5RFNhvsd8h4IAv5x6jb+6dtdNUAwv/DCC/Lkk08qMcEIdGrtL8GM863/fCB/zd0vxUj5xSYHl3PVnvM2gBKc1uUJQGscOGY05Fqda1I8oUgy0WlKKD9napBmzJghX/nKV1TEE5PtKAroxadoa9wMN2UlTE5ccycWChJlwyGJ8ZRQulRVBVgFjMTzmxFttB1BHYVol1yeS9pQycvIyDAeOuG+u4E5ykNGYDBSh8lbVJT0GFJehr75nLpa2V1bpcoJTkNkvZeq5usMOOcuYR9ZLFNs+ylALNNIO+wncEGq2kK8Bo6lD5xK3kQm91Q+RqOXmpoqP/rRj+S3v/2tUA6lRk+ibn4AytH9n36CJZp3q1Iv5Jsn5Z0USuGpgoyh2tD/0bQVDQ9THORWb/s+riteWlqqHzJhP93AHKOho0xKrZ2c89FHH5XvfOc7yszEy9FAXwRZ81d7d8rDe7ZLKUxU5JnOsDN0DMDkqmX9SdU4AGATsahAGK5FoujAmFQtLbr/GRPnt3sqH+OxIkBpXmJ0D1NBDh06pPLpeVka7w9gaicfTUYpl2DUOeLxA4jb6B9H1LlCsOEAeqgqkK/D8Lcy1FEi8Tpr1qxRUUSGQyfUVzfHPEPDxXCzr3/968orM3v2bKXx89JNyOX+c84B+cfRQ0jRHegmVd0D+GzM5+GUPoBQEMHXX2KhmetEjpmfn6//nJCfru50Qt7IROg0FaMvfvGLKsqeHFTnjvVYROEvh/fKP48dkmoUiR1IiMFkNImL6ZzZkSmYyuNRn0knKlwTXc50A1MfzTP4ed5556l87XXr1jmuymKsrGD8BlyanZATnYgCKJUnRCr1J2r6LHUYC28WKwqTaGgfacpz//bP1m83MM/Sk6cr9G9/+5tTsAVXwv3Tof3yXlkxzED9hgZypgmeHteEstlYRykK2rlOzM+nhj5Rqd/dT9TbmJj9ZtoDc5QyMzMdN3AQUfC/27sL9s4656BlTOUmck2Xgcw2SUIkfjy4pk67d+9WPn/990T7dAPzLI8YjeEsLsA8HBJNSbuqK+UhmJG4gKqDwEGtajoHOAeQtjpuhKrppO2k56l/Qt6A08bxBjcwz/Lg0B9/2WWXyZ133qnKM7I7rch05No8fzi4D8HK2hCxDIwN3JLauVaaUbMcUfykBZSmomr7UobcQn897agTlQYTWibq/UzIfhNEXOqQFUVY/Y6xoHWwWf4hZ4+6H0bVK0Lgso2FsZhmYbd3wpAkTbBxbqmrkEPIENWJnJgB0ROV3MAcJyNHefPmm29WK8pxzXdq20dRW+iX+3Y56rarrtJvjnRhnWhGYv3MOgSJ6CkfPtDSzz33XBVHqh834T4RkeKmcfIEEKhsg7xpQz0mIm9Ef56enrbPfe5zNhjZx8ldjawbbo45jlgJvUMsaEV/NxWiUzX3MNKeXPfb3/62xMfHj6M7O/WuTIksyVN/LGf3DKYcU6tmigddi7qHyFWvwI+U0pSSkqKCRKjdM9xuopMbmON4BAk6PdD4ZN3UE+VOdsxE2+cG5kQbsSnSX7cdc4oM9ES7TTcwJ9qITZH+uoE5RQZ6ot2mG5gTbcSmSH/dwJwiAz3RbtMNzIk2YlOkv25gTpGBnmi36QbmRBuxKdJfNzCnyEBPtNt0A3OijdgU6a8bmFNkoCfabU6psDcGRdTW1goDcUlcfGk4y9Ox3AqLCLD2JINwGR1uLDU42KDzelz/ksu7kBglxKKxiJl0FDwY7Fx9O9vg9RlxpAd0sA4SQ+QYvDFpCTc+ZWjjxo0Dgm+R5nrS+0eag+3BBx8ccB6ActLzuBOxlQPOA5Bss2bNsuXk5Ax5PvLDbffff7/LNlAN2Yby3EO2MVEPmMSv3EBeUl1dPWAjOejJiOWjWQLbSOR8Q523f/9+Vd/deJ7+nWWx77vvviEDgY8dOyb33nuvfprTJ6ttvPrqq07bJtOPKQVMV1Ofq239B9hVoK6rbcbzWAv9ZBHoL7744pD10rlg62DE64MbDrZ7wm+fUsA8k6NF4AwF3mefffakXfrrX/960v2TeacbmGdxdB9++OFBr87yMZOZIw564/YdbmAO9YRGaT9FBmMpGDZbVVUlrDHkiriIlJFY330y5PIY7+lk393APNnTGcV9nNYjIiIGFCH43ve+N+AqXAzLWN+SJiqCmp9ThdzAPEMjzWk5NjZWPvvZzzpdkWsD9SeuGGwkFvrPzs6e8OWrjfc01Hc3MId6QqO4n6ursSa7kVjL8oknnnBsYnkYrrZmpNWrVytnwESvq268p6G+u4E51BMaxf0EFherSktLc7RKTvqXv/zF8ZsgrUMJQp3omVqwYMHk9vLoN2v4dAPT8DBO5etQpiBXbZEbZmVlCTmgkQoKCtSiAdy2YcMGJ/snj+fa43RtTiVyA/MMjrZu/qG8SH+5TvQi0abJNdXpMdKJmjzcl+rnVJrGecNuYOooOIOfXJAqBSVddGJwRm5urrz11ltO5iMui8IlAKci9b22U/Huz9I9M6qJaz0abZhbtmyRPXu0eph6t1gki+UEpyK5OeZZGnUueG+0SzLAhLKmkVBO0PhzSn2f8sAcTlylK0QwrvJ06Pbbbx/Sk3PPPfecziUm9LlTfip/+umn1bSqKyYcTX6n+28w+Y77H3/8cVWxt79SEhUVJddcc82QoCCwGXC8adMml8dyuZXhBDG7PHkSbJzywHzkkUccK+Max5OGb/qnufa3K3rggQdc2hZDQkJk8eLFTlq3q/O5je7IwYDJwq1TmaY8MAnAwYjBuDTZuLJZDmZXpBmIBvLhxHlefvnlCsB6yoTeD16vv4dI3zdVPqeUjBkTE3NK40rAECR0JQ6XaETnef2BySlfX7Pc2Nb1119v/Km+cwWL/sRzjWIDv/e/Rv9zJvLvKcUxKbfdcMMNKnJ8qEElRzz//PPV2K5du1bJjeSurrinEQC0PXL6Ly8vlyuvvFL27t2rdgcEBDjaMx7PKZucmSkclF3Z/o9//OMB12GbV1xxhZSVlal9lGXpqpys5K4oPMYjq3NQ3TSkg6//ZQl6csGhrAS66KEvLjVYe/3bn2i/3cCcaCM2Rfo7pWTMKTKmk+I23cCcFMM4+W7CDczJN6aT4o7cwJwUwzj5bsINzMk3ppPijtzAnBTDOPluwg3MyTemk+KO3MCcFMM4+W7CDczJN6aT4o7cwJwUwzj5bsINzMk3ppPijtzAnBTDOPluwg3MyTemk+KO3MCcFMM4+W7CDczJN6buO3I/AfcTGKsn8P8BR9mGDV1rvkIAAAAASUVORK5CYII=;" vertex="1" parent="1">
          <mxGeometry x="280" y="-560" width="110.67" height="120" as="geometry" />
        </mxCell>
        <mxCell id="rDEOcfvnW5xx5Qf8U-n6-3" value="" style="shape=trapezoid;perimeter=trapezoidPerimeter;whiteSpace=wrap;html=1;fixedSize=1;rotation=90;fillColor=#ffe6cc;strokeColor=#d79b00;" vertex="1" parent="1">
          <mxGeometry x="530" y="-530" width="120" height="60" as="geometry" />
        </mxCell>
        <mxCell id="rDEOcfvnW5xx5Qf8U-n6-5" value="$A$" style="text;html=1;align=center;verticalAlign=middle;whiteSpace=wrap;rounded=0;" vertex="1" parent="1">
          <mxGeometry x="560" y="-515" width="60" height="30" as="geometry" />
        </mxCell>
      </root>
    </mxGraphModel>
  </diagram>
</mxfile>
